<?xml version="1.0" encoding="iso-8859-1"?>
<!-- Uploaded to: SVG Repo, www.svgrepo.com, Generator: SVG Repo Mixer Tools -->
<svg height="800px" width="800px" version="1.1" id="Layer_1" xmlns="http://www.w3.org/2000/svg" xmlns:xlink="http://www.w3.org/1999/xlink" 
	 viewBox="0 0 512 512" xml:space="preserve">
	<circle style="fill:#ECF0F1;" cx="256" cy="256" r="245.551"/>
	<path style="fill:#F8C660;" d="M256,345.295l-80.407,42.272c-9.34,4.911-20.257-3.021-18.473-13.422l15.357-89.535l-65.051-63.409
	c-7.557-7.365-3.387-20.199,7.056-21.716l89.898-13.063l40.203-81.461c4.671-9.463,18.163-9.463,22.834,0l40.203,81.461
	l89.898,13.063c10.443,1.517,14.613,14.351,7.056,21.716l-65.051,63.409l15.357,89.535c1.784,10.401-9.132,18.332-18.473,13.422
	L256,345.295z"/>
	<g>
		<path style="fill:#231F20;" d="M437.019,74.981C388.668,26.628,324.38,0,256,0S123.332,26.628,74.981,74.981S0,187.62,0,256
		s26.628,132.668,74.981,181.019S187.62,512,256,512s132.668-26.628,181.019-74.981S512,324.38,512,256
		S485.372,123.332,437.019,74.981z M256,491.102C126.365,491.102,20.898,385.635,20.898,256S126.365,20.898,256,20.898
		S491.102,126.365,491.102,256S385.635,491.102,256,491.102z"/>
		<path style="fill:#231F20;" d="M256,41.796C137.887,41.796,41.796,137.887,41.796,256S137.887,470.204,256,470.204
		S470.204,374.113,470.204,256S374.113,41.796,256,41.796z M256,449.306c-106.589,0-193.306-86.717-193.306-193.306
		S149.411,62.694,256,62.694S449.306,149.411,449.306,256S362.589,449.306,256,449.306z"/>
		<path style="fill:#231F20;" d="M417.735,204.921c-2.906-8.4-9.917-14.498-18.713-15.776l-84.462-12.273l-37.773-76.536
		c-3.933-7.97-11.898-12.922-20.787-12.922c-8.889,0-16.853,4.951-20.787,12.921l-37.773,76.536l-84.462,12.273
		c-8.796,1.278-15.966,7.323-18.713,15.776c-2.746,8.453-0.498,17.558,5.866,23.763l61.117,59.575l-14.428,84.121
		c-1.503,8.76,2.031,17.448,9.222,22.672c4.064,2.952,8.817,4.451,13.604,4.451c3.683,0,7.387-0.889,10.808-2.687L256,357.1
		l75.545,39.717c7.867,4.137,17.221,3.46,24.412-1.764c7.191-5.224,10.725-13.912,9.222-22.672l-14.428-84.121l61.117-59.575
		C416.131,224.588,421.421,215.576,417.735,204.921z M159.56,257.43l20.237-20.237c4.08-4.08,4.08-10.697,0-14.778
		c-4.08-4.081-10.697-4.08-14.778,0l-20.426,20.426l-29.876-29.121c-0.675-0.657-0.869-1.445-0.578-2.341
		c0.29-0.895,0.911-1.418,1.843-1.554l89.898-13.063c3.403-0.494,6.346-2.632,7.867-5.716l40.205-81.462
		c0.417-0.844,1.105-1.272,2.047-1.272s1.63,0.428,2.047,1.273l30.962,62.736L181.661,279.669c-0.497-0.925-1.12-1.788-1.891-2.54
		L159.56,257.43z M251.138,336.046L170.73,378.32c-0.833,0.438-1.642,0.38-2.404-0.174c-0.762-0.554-1.067-1.305-0.908-2.233
		l10.858-63.303l120.553-120.553c1.624,2.535,4.273,4.267,7.29,4.706l28.223,4.101l-107.15,107.15c-4.08,4.08-4.08,10.697,0,14.778
		c2.041,2.04,4.715,3.06,7.388,3.06c2.674,0,5.349-1.021,7.388-3.06l118.178-118.178l35.87,5.212
		c0.895,0.131,1.494,0.627,1.798,1.459L268.852,340.247l-7.99-4.2C257.818,334.446,254.182,334.446,251.138,336.046z
		 M343.674,378.145c-0.763,0.554-1.572,0.611-2.404,0.174l-53.046-27.888l44.377-44.377l11.982,69.858
		C344.741,376.84,344.436,377.592,343.674,378.145z"/>
	</g>
</svg>